<?xml version="1.0" encoding="UTF-8" standalone="no"?>
<!DOCTYPE svg PUBLIC "-//W3C//DTD SVG 1.1//EN" "http://www.w3.org/Graphics/SVG/1.1/DTD/svg11.dtd">
<svg width="100%" height="100%" viewBox="0 0 13 13" version="1.1" xmlns="http://www.w3.org/2000/svg" xmlns:xlink="http://www.w3.org/1999/xlink" xml:space="preserve" xmlns:serif="http://www.serif.com/" style="fill-rule:evenodd;clip-rule:evenodd;stroke-linejoin:round;stroke-miterlimit:1.41421;">
    <g transform="matrix(1.5,0,0,1.14286,-0.5,-1.01778)" fill="#f3108a">
        <path d="M0,5L2,5L4,3L4,10L2,8L0,8L0,5Z"/>
    </g>
    <g transform="matrix(7.5,0,0,7.82157,-42.1379,-52.251)" fill="#f3108a">
        <path d="M6.491,8C6.494,8 6.497,8 6.5,8C6.776,8 7,7.776 7,7.5C7,7.224 6.776,7 6.5,7L6.5,7.25C6.638,7.25 6.75,7.362 6.75,7.5C6.75,7.638 6.638,7.75 6.5,7.75C6.499,7.75 6.497,7.75 6.496,7.75L6.491,8Z"/>
    </g>
    <g transform="matrix(13,0,0,13,-39,-130)" fill="#f3108a">
        <path d="M3.509,11C3.781,10.995 4,10.773 4,10.5C4,10.227 3.781,10.005 3.509,10L3.506,10.133C3.707,10.136 3.867,10.3 3.867,10.5C3.867,10.7 3.707,10.864 3.506,10.867L3.509,11Z"/>
    </g>
</svg>
